<svg height='100px' width='100px'  fill="#000000" xmlns="http://www.w3.org/2000/svg" xmlns:xlink="http://www.w3.org/1999/xlink" version="1.1" x="0px" y="0px" viewBox="0 0 91 91" enable-background="new 0 0 91 91" xml:space="preserve"><g><path fill="#000000" d="M19.93,74.782h12.693c2.462,0,4.472-1.971,4.536-4.418l5.088-39.916l-3.373-0.43l-5.1,40.012l-0.014,0.215   c0,0.627-0.511,1.137-1.138,1.137H19.93c-0.627,0-1.138-0.51-1.138-1.137l-3.249-38.311h10.252v-3.4H11.842l3.552,41.791   C15.437,72.79,17.454,74.782,19.93,74.782z"></path><path fill="#000000" d="M27.469,68.771l8.23-46.383l10.112-8.277l-2.152-2.631l-10.601,8.676c-0.314,0.258-0.526,0.619-0.597,1.02   l-8.341,47.002L27.469,68.771z"></path><path fill="#000000" d="M44.596,50.243v1.701h33.456v-1.701c0-4.027-3.278-7.307-7.309-7.307H51.904   C47.874,42.937,44.596,46.216,44.596,50.243z M74.262,48.544H48.386c0.634-1.305,1.973-2.207,3.519-2.207h18.839   C72.289,46.337,73.628,47.239,74.262,48.544z"></path><path fill="#000000" d="M70.743,74.782c4.03,0,7.309-3.277,7.309-7.309v-1.699H44.596v1.699c0,4.031,3.278,7.309,7.309,7.309   H70.743z M48.386,69.175h25.877c-0.634,1.305-1.973,2.207-3.52,2.207H51.904C50.358,71.382,49.019,70.479,48.386,69.175z"></path><path fill="#000000" d="M78,54.851H44.647c-2.21,0-4.008,1.797-4.008,4.008s1.798,4.012,4.008,4.012H78   c2.21,0,4.008-1.801,4.008-4.012S80.21,54.851,78,54.851z M78,59.47H44.647c-0.335,0-0.607-0.275-0.607-0.611   s0.272-0.607,0.607-0.607H78c0.335,0,0.607,0.271,0.607,0.607S78.335,59.47,78,59.47z"></path></g></svg>