<svg id="Layer_1" data-name="Layer 1" xmlns="http://www.w3.org/2000/svg" viewBox="0 0 1500 1500"><defs><style>.cls-1{fill:#26529a;}</style></defs><title>THAT Conference - Logo - Primary</title><path class="cls-1" d="M397.69,718.66V836.25a1.07,1.07,0,0,1-1.06,1.06H321a1.07,1.07,0,0,1-1.06-1.06V718.66a.07.07,0,0,0-.07-.07h-68.8a1.06,1.06,0,0,1-1.06-1.06V664.6a1.07,1.07,0,0,1,1.06-1.06H466.29a1.06,1.06,0,0,1,1.06,1.06v52.93a1.05,1.05,0,0,1-1.06,1.06H397.76A.07.07,0,0,0,397.69,718.66Z"/><path class="cls-1" d="M645.1,836.25V777.11A.07.07,0,0,0,645,777H576.29a.07.07,0,0,0-.08.07v59.14a1.06,1.06,0,0,1-1.06,1.06H499.78a1.07,1.07,0,0,1-1.06-1.06V664.6a1.07,1.07,0,0,1,1.06-1.06h75.37a1.06,1.06,0,0,1,1.06,1.06v64.09a.08.08,0,0,0,.08.08H645a.08.08,0,0,0,.07-.08V664.6a1.07,1.07,0,0,1,1.06-1.06h75.62a1.07,1.07,0,0,1,1.07,1.06V836.25a1.07,1.07,0,0,1-1.07,1.06H646.16A1.07,1.07,0,0,1,645.1,836.25Z"/><path class="cls-1" d="M1131.29,718.66V836.25a1.06,1.06,0,0,1-1.06,1.06H1054.6a1.07,1.07,0,0,1-1.07-1.06V718.66a.07.07,0,0,0-.07-.07H984.67a1.06,1.06,0,0,1-1.07-1.06V664.6a1.07,1.07,0,0,1,1.07-1.06h215.22a1.07,1.07,0,0,1,1.07,1.06v52.93a1.06,1.06,0,0,1-1.07,1.06h-68.52A.08.08,0,0,0,1131.29,718.66Z"/><path class="cls-1" d="M997.08,837.2,915.22,663.58a.08.08,0,0,0-.07,0H788.9a1.07,1.07,0,0,0-1.06,1.06l12.37,41.62,3.43,12.37L748.78,837.2a.08.08,0,0,0,.07.11h66.9a.07.07,0,0,0,.06,0l13.53-29.92a.07.07,0,0,1,.07,0h71.92a.08.08,0,0,1,.07,0l11.71,29.29a1.06,1.06,0,0,0,1,.67H997A.07.07,0,0,0,997.08,837.2ZM885.87,767.38H846.69a.08.08,0,0,1-.07-.1l20.76-47.48a.07.07,0,0,1,.14,0l18.42,47.47A.07.07,0,0,1,885.87,767.38Z"/><path class="cls-1" d="M1250,679.94a17.3,17.3,0,0,1-17.63,17.43,17.35,17.35,0,1,1,0-34.68A17.28,17.28,0,0,1,1250,679.94Zm-31,0a13.39,13.39,0,0,0,10.26,13.39c8.71,2,16.74-5.09,16.33-14-.34-7.32-5.81-13.14-13.23-13.14C1224.68,666.17,1219,672.37,1219,679.94Zm10.46,9h-3.68a.15.15,0,0,1-.15-.15v-17a.16.16,0,0,1,.12-.15,37.5,37.5,0,0,1,6.49-.5c3.24,0,4.73.52,6,1.28h0a4.78,4.78,0,0,1,1.65,3.77c0,1.9-1.46,3.36-3.56,4v.24c1.69.61,2.63,1.87,3.15,4.18a16.43,16.43,0,0,0,1.14,4.11.15.15,0,0,1-.13.22h-4a.14.14,0,0,1-.12-.06,16.38,16.38,0,0,1-1.33-4.15c-.32-1.9-1.38-2.72-3.57-2.72h-1.75a.15.15,0,0,0-.15.14v6.64A.15.15,0,0,1,1229.47,689Zm.27-9.92a.14.14,0,0,0,.14.15h1.76c2.19,0,4-.76,4-2.54,0-1.58-1.14-2.63-3.68-2.63a8.74,8.74,0,0,0-2.08.2.15.15,0,0,0-.11.14Z"/></svg>