<svg id="Layer_1" data-name="Layer 1" xmlns="http://www.w3.org/2000/svg" viewBox="0 0 1500 1500"><defs><style>.cls-1{fill:#f74646;}</style></defs><title>THAT Conference - Logo - Trees</title><path class="cls-1" d="M1008.09,784.92,930.73,661.67H959.3l-82-130.11-82,130.11h28.56L750,779.47l-73.94-117.8h28.56l-82-130.11-82,130.11h28.57L491.91,784.92h28.52l-80.54,129H589.44v54.57h66.44V913.87H844.12v54.57h66.44V913.87h149.55l-80.54-129Zm-283.2,0h50.22L750,825.12Z"/><polygon class="cls-1" points="378.72 577.76 285.75 670.72 250 706.48 285.76 742.23 378.72 835.2 414.47 799.44 321.51 706.48 414.47 613.51 378.72 577.76"/><polygon class="cls-1" points="1214.24 670.72 1121.28 577.76 1085.53 613.51 1178.49 706.48 1085.53 799.44 1121.28 835.2 1214.24 742.23 1250 706.48 1214.24 670.72"/></svg>