<svg xmlns="http://www.w3.org/2000/svg" viewBox="0 0 999.99 174.68"><defs><style>.cls-1{fill:#26529a;}</style></defs><g id="Layer_2" data-name="Layer 2"><g id="Layer_1-2" data-name="Layer 1"><path class="cls-1" d="M147.68,56V173.57a1.08,1.08,0,0,1-1.06,1.06H71a1.08,1.08,0,0,1-1.06-1.06V56a.07.07,0,0,0-.07-.07H1.06A1.05,1.05,0,0,1,0,54.85V1.92A1.08,1.08,0,0,1,1.06.86H216.28a1.05,1.05,0,0,1,1.06,1.06V54.85a1,1,0,0,1-1,1.06H147.75a.07.07,0,0,0-.07.07Z"/><path class="cls-1" d="M395.09,173.57V114.43a.07.07,0,0,0,0-.1.06.06,0,0,0-.1,0H326.28s-.07,0-.08.06h0v59.14a1.05,1.05,0,0,1-1.06,1.06H249.77a1.08,1.08,0,0,1-1.06-1.06V1.92A1.08,1.08,0,0,1,249.77.86h75.37a1.05,1.05,0,0,1,1.06,1.06V66a.09.09,0,0,0,.08.08H395a.08.08,0,0,0,.07-.08V1.92A1.08,1.08,0,0,1,396.12.86h75.62a1.07,1.07,0,0,1,1.07,1.06V173.57a1.07,1.07,0,0,1-1.07,1.06H396.15A1.08,1.08,0,0,1,395.09,173.57Z"/><path class="cls-1" d="M881.28,56V173.57a1.05,1.05,0,0,1-1.06,1.06H804.59a1.07,1.07,0,0,1-1.07-1.06V56a.07.07,0,0,0-.07-.07H734.66a1.05,1.05,0,0,1-1.07-1h0V1.92A1.07,1.07,0,0,1,734.66.86H949.88A1.07,1.07,0,0,1,951,1.92V54.85a1.05,1.05,0,0,1-1.06,1.06H881.36A.08.08,0,0,0,881.28,56Z"/><path class="cls-1" d="M747.07,174.52,665.21.9a.09.09,0,0,0-.07,0H538.89A1.08,1.08,0,0,0,537.83,2L550.2,43.58,553.63,56,498.77,174.52a.07.07,0,0,0,0,.1h67l13.53-29.92a.09.09,0,0,1,.07,0h71.92a.09.09,0,0,1,.07,0L663.1,174a1.05,1.05,0,0,0,1,.67H747a.08.08,0,0,0,.11,0,.08.08,0,0,0,0-.12ZM635.86,104.7H596.68a.07.07,0,0,1-.07-.09h0l20.76-47.48a.07.07,0,1,1,.14,0l18.42,47.47a.07.07,0,0,1,0,.1Z"/><path class="cls-1" d="M1000,17.26a17.3,17.3,0,0,1-17.17,17.43h-.46A17.35,17.35,0,1,1,981.18,0h1.18A17.29,17.29,0,0,1,1000,16.94Zm-31,0a13.39,13.39,0,0,0,10.26,13.39c8.71,2,16.74-5.09,16.33-14-.34-7.32-5.81-13.14-13.23-13.14C974.67,3.49,969,9.69,969,17.26Zm10.46,9h-3.68a.15.15,0,0,1-.15-.15h0v-17a.16.16,0,0,1,.12-.15,38.12,38.12,0,0,1,6.49-.5c3.24,0,4.73.52,6,1.28h0a4.77,4.77,0,0,1,1.65,3.77c0,1.9-1.46,3.36-3.56,4v.24c1.69.61,2.63,1.87,3.15,4.18A16.3,16.3,0,0,0,990.61,26a.15.15,0,0,1-.06.2l-.07,0h-4a.14.14,0,0,1-.12-.06A16.35,16.35,0,0,1,985,22.05c-.32-1.9-1.38-2.72-3.57-2.72h-1.75a.15.15,0,0,0-.15.14v6.64a.15.15,0,0,1-.07.2h0Zm.27-9.92a.14.14,0,0,0,.13.15h1.77c2.19,0,4-.76,4-2.54,0-1.58-1.14-2.63-3.68-2.63a8.54,8.54,0,0,0-2.08.2.15.15,0,0,0-.11.14Z"/></g></g></svg>