<?xml version="1.0" encoding="UTF-8"?>
<svg width="1002px" height="810px" viewBox="0 0 1002 810" version="1.1" xmlns="http://www.w3.org/2000/svg" xmlns:xlink="http://www.w3.org/1999/xlink">
    <!-- Generator: Sketch 52.5 (67469) - http://www.bohemiancoding.com/sketch -->
    <title>Untitled 2</title>
    <desc>Created with Sketch.</desc>
    <g id="Page-1" stroke="none" stroke-width="1" fill="none" fill-rule="evenodd">
        <g id="THATConference">
            <path d="M147.1,547.93 L147.1,664.25 C147.100343,664.524111 146.98815,664.786346 146.789656,664.975389 C146.591161,665.164431 146.323769,665.263706 146.05,665.25 L71.23,665.25 C70.9562314,665.263706 70.6888386,665.164431 70.490344,664.975389 C70.2918495,664.786346 70.1796571,664.524111 70.18,664.25 L70.18,547.93 C70.1749317,547.889762 70.140555,547.859682 70.1,547.86 L2.05,547.86 C1.76731945,547.874526 1.49172466,547.768573 1.2915756,547.568424 C1.09142655,547.368275 0.985474368,547.092681 1,546.81 L1,494.45 C0.985474368,494.167319 1.09142655,493.891725 1.2915756,493.691576 C1.49172466,493.491427 1.76731945,493.385474 2.05,493.4 L215,493.4 C215.282681,493.385474 215.558275,493.491427 215.758424,493.691576 C215.958573,493.891725 216.064526,494.167319 216.05,494.45 L216.05,546.81 C216.064526,547.092681 215.958573,547.368275 215.758424,547.568424 C215.558275,547.768573 215.282681,547.874526 215,547.86 L147.17,547.86 C147.13134,547.86 147.1,547.89134 147.1,547.93 Z" id="Path" fill="#26529A"></path>
            <path d="M391.85,664.25 L391.85,605.75 C391.85021,605.729565 391.841479,605.710058 391.826099,605.696601 C391.810719,605.683144 391.790226,605.677079 391.77,605.68 L323.77,605.68 C323.73134,605.68 323.7,605.71134 323.7,605.75 L323.7,664.25 C323.700343,664.524111 323.58815,664.786346 323.389656,664.975389 C323.191161,665.164431 322.923769,665.263706 322.65,665.25 L248.09,665.25 C247.537715,665.25 247.09,664.802285 247.09,664.25 L247.09,494.45 C247.076294,494.176231 247.175569,493.908839 247.364611,493.710344 C247.553654,493.51185 247.815889,493.399657 248.09,493.4 L322.65,493.4 C322.932681,493.385474 323.208275,493.491427 323.408424,493.691576 C323.608573,493.891725 323.714526,494.167319 323.7,494.45 L323.7,557.86 C323.7,557.89866 323.73134,557.93 323.77,557.93 L391.77,557.93 C391.790226,557.932921 391.810719,557.926856 391.826099,557.913399 C391.841479,557.899942 391.85021,557.880435 391.85,557.86 L391.85,494.45 C391.836294,494.176231 391.935569,493.908839 392.124611,493.710344 C392.313654,493.51185 392.575889,493.399657 392.85,493.4 L467.65,493.4 C467.924111,493.399657 468.186346,493.51185 468.375389,493.710344 C468.564431,493.908839 468.663706,494.176231 468.65,494.45 L468.65,664.25 C468.65,664.802285 468.202285,665.25 467.65,665.25 L392.9,665.25 C392.626231,665.263706 392.358839,665.164431 392.160344,664.975389 C391.96185,664.786346 391.849657,664.524111 391.85,664.25 Z" id="Path" fill="#26529A"></path>
            <path d="M872.8,547.93 L872.8,664.25 C872.8,664.802285 872.352285,665.25 871.8,665.25 L796.98,665.25 C796.427715,665.25 795.98,664.802285 795.98,664.25 L795.98,547.93 C795.98,547.89134 795.94866,547.86 795.91,547.86 L727.75,547.86 C727.475889,547.860343 727.213654,547.74815 727.024611,547.549656 C726.835569,547.351161 726.736294,547.083769 726.75,546.81 L726.75,494.45 C726.736294,494.176231 726.835569,493.908839 727.024611,493.710344 C727.213654,493.51185 727.475889,493.399657 727.75,493.4 L940.66,493.4 C940.934111,493.399657 941.196346,493.51185 941.385389,493.710344 C941.574431,493.908839 941.673706,494.176231 941.66,494.45 L941.66,546.81 C941.673706,547.083769 941.574431,547.351161 941.385389,547.549656 C941.196346,547.74815 940.934111,547.860343 940.66,547.86 L872.88,547.86 C872.839445,547.859682 872.805068,547.889762 872.8,547.93 Z" id="Path" fill="#26529A"></path>
            <path d="M740,665.2 L659,493.44 C658.977429,493.431567 658.952571,493.431567 658.93,493.44 L534.1,493.44 C533.817319,493.425474 533.541725,493.531427 533.341576,493.731576 C533.141427,493.931725 533.035474,494.207319 533.05,494.49 L545.29,535.66 L548.68,547.9 L494.41,665.2 C494.399927,665.221173 494.401123,665.245983 494.413186,665.266088 C494.425249,665.286194 494.446578,665.298925 494.47,665.3 L560.65,665.3 C560.672095,665.31075 560.697905,665.31075 560.72,665.3 L574.1,635.7 C574.122095,635.68925 574.147905,635.68925 574.17,635.7 L645.32,635.7 C645.342095,635.68925 645.367905,635.68925 645.39,635.7 L656.96,664.7 C657.122779,665.107259 657.521539,665.370441 657.96,665.36 L739.96,665.36 C740.004183,665.371046 740.048954,665.344183 740.06,665.3 C740.071046,665.255817 740.044183,665.211046 740,665.2 Z M630,596.12 L591.26,596.12 C591.236578,596.118925 591.215249,596.106194 591.203186,596.086088 C591.191123,596.065983 591.189927,596.041173 591.2,596.02 L611.73,549.02 C611.740626,548.993415 611.76637,548.975981 611.795,548.975981 C611.82363,548.975981 611.849374,548.993415 611.86,549.02 L630.09,596.02 C630.106513,596.046474 630.10351,596.080681 630.082637,596.103873 C630.061764,596.127065 630.028061,596.133642 630,596.12 Z" id="Shape" fill="#26529A" fill-rule="nonzero"></path>
            <path d="M206.52,782.35 C205.19,799.35 195.31,809.73 180.37,809.73 C162.37,809.73 152.2,795.73 152.2,771.22 C152.2,746.54 162.4,732.6 180.58,732.6 C189.92,732.6 196.99,736.33 201.37,743.52 C204.29,748.22 205.51,753.04 206.19,761.59 L191.14,762.7 C190.71,756.2 190.24,753.61 188.8,751.03 C186.9,747.65 184.18,745.97 180.72,745.97 C172.72,745.97 169.48,753.72 169.48,772.47 C169.48,789.47 172.75,796.37 180.72,796.37 C186.65,796.37 190.03,791.66 191.25,781.37 L206.52,782.35 Z" id="Path" fill="#26529A"></path>
            <path d="M265.93,739.79 C272,746.43 274.93,756.53 274.93,771.22 C274.93,796.61 265.62,809.73 247.77,809.73 C229.92,809.73 220.61,796.61 220.61,771.47 C220.61,745.53 229.773333,732.573333 248.1,732.6 C255.26,732.6 261.68,735.19 265.93,739.79 Z M237.87,771 C237.87,790 240.35,796.37 247.75,796.37 C255.15,796.37 257.63,789.97 257.63,771.11 C257.63,752.5 255.04,745.97 247.86,745.97 C240.46,746 237.87,752.25 237.87,771 Z" id="Shape" fill="#26529A" fill-rule="nonzero"></path>
            <polygon id="Path" fill="#26529A" points="310.61 733.75 329.72 780.2 329.72 733.75 342.51 733.75 342.51 808.61 327.81 808.61 305.12 754.4 305.12 808.61 292.33 808.61 292.33 733.75"></polygon>
            <polygon id="Path" fill="#26529A" points="407.09 733.75 407.09 746.65 379.09 746.65 379.09 766.19 400.64 766.19 400.64 779.09 379.14 779.09 379.14 808.61 362.76 808.61 362.76 733.75"></polygon>
            <polygon id="Path" fill="#26529A" points="464.59 733.75 464.59 746.65 435.53 746.65 435.53 763.93 458.2 763.93 458.2 776.85 435.53 776.85 435.53 795.25 464.59 795.25 464.59 808.61 419.15 808.61 419.15 733.75"></polygon>
            <path d="M502.8,733.75 C512.9,733.75 516.17,734.54 520.55,737.67 C525.72,741.58 528.63,748.22 528.63,756.42 C528.63,765.94 525.63,771.42 518.07,775.96 L531.87,808.61 L513.87,808.61 L503.87,779.09 L495.68,779.09 L495.68,808.61 L479.34,808.61 L479.34,733.75 L502.8,733.75 Z M495.73,767 L502.91,767 C509.2,767 512.57,763.16 512.57,756.11 C512.57,752.52 511.46,749.47 509.31,747.67 C507.87,746.45 505.82,745.88 502.23,745.88 L495.73,745.88 L495.73,767 Z" id="Shape" fill="#26529A" fill-rule="nonzero"></path>
            <polygon id="Path" fill="#26529A" points="592.67 733.75 592.67 746.65 563.57 746.65 563.57 763.93 586.24 763.93 586.24 776.85 563.57 776.85 563.57 795.25 592.67 795.25 592.67 808.61 547.19 808.61 547.19 733.75"></polygon>
            <polygon id="Path" fill="#26529A" points="625 733.75 644.1 780.2 644.1 733.75 656.89 733.75 656.89 808.61 642.2 808.61 619.5 754.4 619.5 808.61 606.71 808.61 606.71 733.75"></polygon>
            <path d="M728.88,782.35 C727.54,799.35 717.66,809.73 702.72,809.73 C684.72,809.73 674.55,795.73 674.55,771.22 C674.55,746.54 684.76,732.6 702.94,732.6 C712.27,732.6 719.35,736.33 723.73,743.52 C726.64,748.22 727.87,753.04 728.55,761.59 L713.55,762.7 C713.11,756.2 712.65,753.61 711.21,751.03 C709.3,747.65 706.58,745.97 703.13,745.97 C695.13,745.97 691.89,753.72 691.89,772.47 C691.89,789.47 695.15,796.37 703.13,796.37 C709.06,796.37 712.43,791.66 713.66,781.37 L728.88,782.35 Z" id="Path" fill="#26529A"></path>
            <polygon id="Path" fill="#26529A" points="790.52 733.75 790.52 746.65 761.45 746.65 761.45 763.93 784.12 763.93 784.12 776.85 761.45 776.85 761.45 795.25 790.52 795.25 790.52 808.61 745.07 808.61 745.07 733.75"></polygon>
            <path d="M1001,509.63 C1001.03595,514.248116 999.203521,518.684647 995.919143,521.93136 C992.634765,525.178073 988.177394,526.959212 983.56,526.87 C977.332364,527.020369 971.512347,523.783931 968.354311,518.414306 C965.196275,513.044682 965.196275,506.385318 968.354311,501.015694 C971.512347,495.646069 977.332364,492.409631 983.56,492.56 C988.149418,492.465988 992.58371,494.222195 995.864212,497.433099 C999.144714,500.644003 1000.99559,505.039621 1001,509.63 Z M970.34,509.63 C970.168732,515.890919 974.408007,521.41533 980.5,522.87 C989.11,524.87 997.05,517.87 996.65,509 C996.31,501.76 990.9,496 983.56,496 C976,496 970.34,502.14 970.34,509.63 Z M980.69,518.57 L977.05,518.57 C976.971086,518.564728 976.909824,518.49909 976.91,518.42 L976.91,501.62 C976.903942,501.551607 976.952116,501.490295 977.02,501.48 C979.141254,501.125856 981.289494,500.958547 983.44,500.98 C986.64,500.98 988.12,501.5 989.36,502.25 C990.452035,503.182937 991.05638,504.564823 991,506 C991,507.88 989.55,509.33 987.47,509.94 L987.47,510.17 C989.15,510.78 990.08,512.02 990.6,514.3 C990.793257,515.703137 991.169804,517.074847 991.72,518.38 C991.739789,518.425179 991.736103,518.477198 991.710142,518.519136 C991.684181,518.561073 991.639263,518.587568 991.59,518.59 L987.66,518.59 C987.613141,518.588546 987.569278,518.566615 987.54,518.53 C986.922737,517.22426 986.482194,515.8421 986.23,514.42 C985.91,512.54 984.87,511.73 982.7,511.73 L981,511.73 C980.921086,511.735272 980.859824,511.80091 980.86,511.88 L980.86,518.44 C980.855036,518.479937 980.834232,518.516205 980.802263,518.540652 C980.770294,518.565098 980.729843,518.575673 980.69,518.57 Z M980.96,508.76 C980.96,508.79713 980.97475,508.83274 981.001005,508.858995 C981.02726,508.88525 981.06287,508.9 981.1,508.9 L982.84,508.9 C985,508.9 986.77,508.15 986.77,506.39 C986.77,504.83 985.64,503.79 983.12,503.79 C982.427789,503.773593 981.736127,503.840745 981.06,503.99 C980.996137,504.004781 980.953269,504.064796 980.96,504.13 L980.96,508.76 Z" id="Shape" fill="#26529A" fill-rule="nonzero"></path>
            <path d="M714.12,238 L641.53,122.36 L668.33,122.36 L591.43,0.27 L514.52,122.36 L541.32,122.36 L471.94,232.9 L402.56,122.36 L429.36,122.36 L352.46,0.27 L275.55,122.36 L302.35,122.36 L229.76,238 L256.53,238 L181,359 L321.28,359 L321.28,410.21 L383.63,410.21 L383.63,359 L560.26,359 L560.26,410.21 L622.6,410.21 L622.6,359 L762.93,359 L687.36,238 L714.12,238 Z M448.38,238 L495.5,238 L471.94,275.71 L448.38,238 Z" id="Shape" fill="#F74646" fill-rule="nonzero"></path>
            <polygon id="Path" fill="#F74646" points="123.55 43.62 36.32 130.86 2.77 164.41 36.32 197.96 123.55 285.19 157.1 251.64 69.87 164.41 157.1 77.18"></polygon>
            <polygon id="Path" fill="#F74646" points="907.56 130.86 820.33 43.62 786.78 77.18 874.01 164.41 786.78 251.64 820.33 285.19 907.56 197.96 941.12 164.41"></polygon>
        </g>
    </g>
</svg>