<svg id="Layer_1" data-name="Layer 1" xmlns="http://www.w3.org/2000/svg" viewBox="0 0 1500 908"><defs><style>.cls-1{fill:#26529a;}.cls-2{fill:#f74646;}</style></defs><title>THAT Conference - Logo - Conference with Year and State - Cropped</title><path class="cls-1" d="M323,809c-1.93,24.59-16.26,39.7-37.92,39.7-26,0-40.84-20.32-40.84-55.84,0-35.79,14.8-56,41.16-56,13.53,0,23.79,5.41,30.14,15.82,4.23,6.83,6,13.81,7,26.21l-21.82,1.61c-.64-9.43-1.31-13.18-3.4-16.93-2.76-4.89-6.71-7.34-11.72-7.34-11.56,0-16.29,11.25-16.29,38.44,0,24.58,4.73,34.65,16.29,34.65,8.61,0,13.5-6.83,15.27-21.79Z"/><path class="cls-1" d="M409.15,747.33c8.8,9.63,13,24.27,13,45.57,0,36.82-13.5,55.84-39.38,55.84s-39.39-19-39.39-55.48q0-56.41,39.86-56.35C393.68,736.91,403,740.66,409.15,747.33Zm-40.69,45.26c0,27.5,3.59,36.78,14.33,36.78s14.32-9.28,14.32-36.62c0-27-3.75-36.47-14.17-36.47C372.21,756.28,368.46,765.4,368.46,792.59Z"/><path class="cls-1" d="M473.94,738.57l27.7,67.36V738.57h18.55V847.12H498.88L466,768.52v78.6H447.42V738.57Z"/><path class="cls-1" d="M613.83,738.57v18.7H573.3V785.6h31.26v18.71H573.3v42.81H549.55V738.57Z"/><path class="cls-1" d="M697.21,738.57v18.7H655.07v25.06h32.87v18.74H655.07v26.68h42.14v19.37h-65.9V738.57Z"/><path class="cls-1" d="M752.62,738.57c14.64,0,19.37,1.14,25.72,5.68,7.5,5.68,11.72,15.31,11.72,27.19,0,13.81-4.42,21.82-15.31,28.33l20,47.35h-26l-14.49-42.81H742.36v42.81H718.6V738.57Zm-10.26,48.18h10.41c9.12,0,14-5.57,14-15.79,0-5.2-1.62-9.62-4.73-12.23-2.09-1.77-5-2.6-10.26-2.6h-9.43Z"/><path class="cls-1" d="M882.92,738.57v18.7H840.73v25.06H873.6v18.74H840.73v26.68h42.19v19.37H817V738.57Z"/><path class="cls-1" d="M929.8,738.57l27.7,67.36V738.57H976V847.12h-21.3l-32.92-78.6v78.6H903.28V738.57Z"/><path class="cls-1" d="M1080.42,809c-1.93,24.59-16.26,39.7-37.92,39.7-26,0-40.85-20.32-40.85-55.84,0-35.79,14.8-56,41.16-56,13.54,0,23.8,5.41,30.15,15.82,4.22,6.83,6,13.81,7,26.21l-21.83,1.61c-.63-9.43-1.3-13.18-3.39-16.93-2.76-4.89-6.71-7.34-11.72-7.34-11.56,0-16.3,11.25-16.3,38.44,0,24.58,4.74,34.65,16.3,34.65,8.6,0,13.5-6.83,15.27-21.79Z"/><path class="cls-1" d="M1169.8,738.57v18.7h-42.15v25.06h32.88v18.74h-32.88v26.68h42.15v19.37h-65.9V738.57Z"/><path class="cls-1" d="M236.84,469.14V637.8a1.52,1.52,0,0,1-1.52,1.52H126.83a1.52,1.52,0,0,1-1.52-1.52V469.14a.11.11,0,0,0-.11-.11H26.52A1.52,1.52,0,0,1,25,467.51V391.59a1.52,1.52,0,0,1,1.52-1.52H335.24a1.53,1.53,0,0,1,1.53,1.52v75.92a1.53,1.53,0,0,1-1.53,1.52H237A.11.11,0,0,0,236.84,469.14Z"/><path class="cls-1" d="M591.73,637.8V553a.1.1,0,0,0-.11-.1H493a.1.1,0,0,0-.11.1V637.8a1.52,1.52,0,0,1-1.52,1.52H383.28a1.52,1.52,0,0,1-1.52-1.52V391.59a1.52,1.52,0,0,1,1.52-1.52H491.39a1.52,1.52,0,0,1,1.52,1.52v91.93a.11.11,0,0,0,.11.11h98.6a.11.11,0,0,0,.11-.11V391.59a1.52,1.52,0,0,1,1.52-1.52H701.72a1.52,1.52,0,0,1,1.52,1.52V637.8a1.52,1.52,0,0,1-1.52,1.52H593.25A1.52,1.52,0,0,1,591.73,637.8Z"/><path class="cls-1" d="M1289.11,469.14V637.8a1.52,1.52,0,0,1-1.52,1.52H1179.1a1.52,1.52,0,0,1-1.52-1.52V469.14a.11.11,0,0,0-.11-.11h-98.68a1.52,1.52,0,0,1-1.52-1.52V391.59a1.52,1.52,0,0,1,1.52-1.52h308.72a1.53,1.53,0,0,1,1.53,1.52v75.92a1.53,1.53,0,0,1-1.53,1.52h-98.29A.11.11,0,0,0,1289.11,469.14Z"/><path class="cls-1" d="M1096.61,639.17l-117.43-249a.1.1,0,0,0-.1-.06H798a1.52,1.52,0,0,0-1.52,1.52l17.75,59.69L819.14,469l-78.7,170.14a.11.11,0,0,0,.1.15h96a.11.11,0,0,0,.1-.06L856,596.35a.09.09,0,0,1,.09-.06H959.26a.09.09,0,0,1,.1.06l16.79,42a1.52,1.52,0,0,0,1.41,1h119A.11.11,0,0,0,1096.61,639.17ZM937.08,539h-56.2a.1.1,0,0,1-.09-.14l29.77-68.1a.1.1,0,0,1,.19,0l26.43,68.1A.1.1,0,0,1,937.08,539Z"/><path class="cls-1" d="M1475,413.59c0,14-11,25-25.29,25s-25.5-11-25.5-25c0-13.71,11.32-24.74,25.5-24.74S1475,399.88,1475,413.59Zm-44.46,0c0,9.43,6,17.19,14.73,19.2,12.49,2.89,24-7.29,23.42-20.1-.49-10.51-8.34-18.85-19-18.85C1438.68,393.84,1430.54,402.73,1430.54,413.59Zm15,13h-5.29a.21.21,0,0,1-.21-.21V402a.21.21,0,0,1,.18-.21,52.6,52.6,0,0,1,9.3-.73c4.64,0,6.78.76,8.58,1.84l0,0a6.81,6.81,0,0,1,2.38,5.4c0,2.73-2.1,4.82-5.12,5.7v.34c2.44.88,3.78,2.68,4.53,6s1.12,4.95,1.63,5.9a.21.21,0,0,1-.19.3h-5.69a.19.19,0,0,1-.17-.08c-.72-1-1.18-3.19-1.91-6-.46-2.72-2-3.9-5.12-3.9H1446a.21.21,0,0,0-.21.21v9.52A.21.21,0,0,1,1445.56,426.55Zm.38-14.21a.21.21,0,0,0,.21.21h2.51c3.15,0,5.71-1.09,5.71-3.65,0-2.27-1.64-3.78-5.29-3.78a12.35,12.35,0,0,0-3,.3.2.2,0,0,0-.15.2Z"/><path class="cls-1" d="M1203.27,183.81l-1.77,21h-78.91V184.35q3.86-2.94,12.72-9.17,21.64-15.42,31.52-25.39t9.86-18.31a13.69,13.69,0,0,0-3.93-10q-3.93-4-10.56-4-15.4,0-17.88,20.11l-21.73-4.85Q1129.91,98,1163.2,98q18.66,0,28.63,9.79a31.6,31.6,0,0,1,10,23.35q0,14-10.44,25T1153,183.81Z"/><path class="cls-1" d="M1256.21,206.39q-19.34,0-30.09-15.34t-10.75-38.76q0-23,10.48-38.64T1256.37,98q19.88,0,30.51,15.69T1297.52,152q0,23.21-10.68,38.8T1256.21,206.39Zm.31-90.78q-8.7,0-12.13,8T1241,151.91q0,20.34,3.58,28.28t11.91,7.93q8.23,0,11.94-7.78t3.7-27.43q0-21.58-3.62-29.44T1256.52,115.61Z"/><path class="cls-1" d="M331.2,99.58,304.78,204.77H280.57l-17.3-69.59-16.69,69.59h-24L195.5,99.58h25.14l14.5,64.19c.05.31.34,1.44.85,3.39.21.72.49,1.8.85,3.24l17.23-70.82H276.8l17.68,70.82q.54-2,1.54-6.63l14.92-64.19Z"/><path class="cls-1" d="M367.34,99.58V204.77H342.76V99.58Z"/><path class="cls-2" d="M893.72,203.13l-43.93-70H866L819.47,59.26l-46.54,73.88h16.22l-42,66.89-42-66.89H721.4L674.86,59.26l-46.54,73.88h16.22l-43.93,70h16.2l-45.74,73.21H656v31h37.72v-31H800.61v31h37.72v-31h84.93l-45.74-73.21Zm-160.81,0h28.51L747.16,226Z"/><polygon class="cls-2" points="536.34 85.49 483.55 138.28 463.25 158.58 483.55 178.89 536.34 231.67 556.64 211.37 503.85 158.58 556.64 105.8 536.34 85.49"/><polygon class="cls-2" points="1010.78 138.28 957.99 85.49 937.69 105.8 990.47 158.58 937.69 211.37 957.99 231.67 1010.78 178.89 1031.08 158.58 1010.78 138.28"/></svg>