<svg id="Layer_1" data-name="Layer 1" xmlns="http://www.w3.org/2000/svg" viewBox="0 0 1500 1500"><defs><style>.cls-1{fill:#26529a;}.cls-2{fill:#f74646;}</style></defs><title>THAT Conference - Logo - Conference with Location</title><path class="cls-1" d="M372.6,526.83l34.52,22.67-25.26-33,7.92-8.82,35.3,21.95L399.46,496.9l7.26-8.1,35.63,49-7.73,8.61L398.91,524.9,424,558.23l-7.62,8.49-52.63-30Z"/><path class="cls-1" d="M432.21,467.41,470.68,512l-9.76,8.42-38.48-44.58Z"/><path class="cls-1" d="M482.14,451.29c-4.23-3.33-7.59-3.69-11-1.32-3,2-3.85,5.33-2,7.95s4,2.9,12.83.71c6-1.45,8.34-1.78,11.65-1.49a15.79,15.79,0,0,1,12,7.18c6.42,9.32,3.77,20.27-6.5,27.33-9,6.18-17.36,5.64-26.05-1.67l7.5-9c4.9,4.14,8.73,4.71,12.8,1.91,3.71-2.57,4.73-6.38,2.57-9.51-1.89-2.76-4.62-3.14-10.9-1.5-7.61,2-9.77,2.33-13.53,2A15.87,15.87,0,0,1,460,466.79c-6.13-8.89-4.06-19.12,5.35-25.59,4.29-2.95,8.8-4.35,13.13-4,3.57.22,6.09,1.38,10.21,4.55Z"/><path class="cls-1" d="M555.28,434.85c5.09,12.37,1.86,23.19-8.61,28.5-12.6,6.39-24.74.18-33.44-17s-6.56-30.69,6.19-37.16c6.53-3.32,12.81-3.23,18.43.25,3.73,2.26,6.3,5.21,9.82,11l-10.16,6.12c-2.63-4.39-3.85-6-5.8-7.35a7,7,0,0,0-7.47-.65c-5.59,2.83-5.11,9.42,1.55,22.57,6,11.88,10.78,15.59,16.37,12.76,4.18-2.1,4.85-6.6,2.06-14.3Z"/><path class="cls-1" d="M592.7,385.47c6.21,3.38,11,10.16,14.7,21.12,6.45,18.89,2.86,31-10.42,35.58s-23.57-2.87-30-21.59c-6.61-19.3-3-31.26,10.58-35.92A18.82,18.82,0,0,1,592.7,385.47Zm-12.94,30.38c4.83,14.12,8.3,18.26,13.82,16.38s5.71-7.28.91-21.33c-4.74-13.87-8.31-18.06-13.66-16.23C575.31,396.55,575,401.9,579.76,415.85Z"/><path class="cls-1" d="M635.25,370.17l21.44,33.18L650,367.42l9.89-1.84,10.8,57.9-11.37,2.11L634,386.94l7.8,41.92-9.89,1.85-10.8-57.9Z"/><path class="cls-1" d="M711.37,378.48c-1.83-5-4.49-7.12-8.64-6.92-3.61.18-6.06,2.51-5.9,5.68.15,3.37,1.89,4.59,10.52,7.35,5.83,1.93,8,2.88,10.66,4.88a15.72,15.72,0,0,1,6.44,12.41c.55,11.28-7.45,19.19-19.88,19.79-10.85.53-17.72-4.35-21.25-15.13l11.14-3.73c2,6.09,4.92,8.59,9.85,8.35,4.51-.21,7.37-2.91,7.2-6.71-.17-3.35-2.3-5.09-8.49-7-7.52-2.28-9.51-3.16-12.54-5.41A15.88,15.88,0,0,1,684.4,380c-.51-10.76,6.63-18.35,18-18.91,5.19-.25,9.76.94,13.25,3.51,2.93,2.07,4.45,4.38,6.28,9.23Z"/><path class="cls-1" d="M756.71,362.47l-3.22,58.8-12.87-.7,3.22-58.81Z"/><path class="cls-1" d="M795.14,366.77l8.78,38.53,6-36.05,9.92,1.66L810.17,429l-11.43-1.89-10.54-45-7,42.05-9.92-1.66,9.7-58.08Z"/><path class="cls-1" d="M885.06,390.42c8.13,3.18,12.46,6.2,15.31,10.8,3.88,6.08,3.62,15.45-.5,26.06-4.47,11.44-11.49,19-19.31,20.8-4.78,1.07-8,.66-15.42-2.22l-14.39-5.63,21.39-54.84Zm-18.61,45.05,2,.8c4.36,1.7,6.73,1.67,9.8-.35s6.09-6.62,8.89-13.78,3.39-12.12,2.1-15.84c-1-3-2.66-4.37-6.76-6l-2.07-.8Z"/><path class="cls-1" d="M963.1,428l-4.93,8.88-20-11.09-6.61,11.9,15.63,8.66-4.94,8.91-15.63-8.66-7,12.7,20,11.09-5.09,9.21-31.33-17.35,28.59-51.63Z"/><path class="cls-1" d="M990.22,446.62l-27.9,38.85,15.41,11.08-6.43,8.95-25.88-18.58,34.33-47.82Z"/><path class="cls-1" d="M1030.72,479.19,998.57,514.7l14.1,12.75-7.42,8.18L981.6,514.24l39.56-43.71Z"/><path class="cls-1" d="M1063.53,538c2.85-4.54,2.87-7.92.18-11.08-2.37-2.76-5.71-3.26-8.13-1.19s-2.47,4.31.64,12.82c2,5.8,2.62,8.11,2.67,11.42a15.72,15.72,0,0,1-5.86,12.7c-8.59,7.35-19.76,5.87-27.87-3.61-7.05-8.24-7.4-16.68-1-26.08l9.76,6.53c-3.6,5.3-3.78,9.17-.57,12.93,2.94,3.41,6.84,4,9.72,1.57,2.55-2.19,2.64-4.94.36-11-2.81-7.35-3.33-9.46-3.42-13.23a16,16,0,0,1,5.84-12.2c8.19-7,18.58-6,26,2.65,3.4,4,5.24,8.3,5.35,12.63.15,3.59-.74,6.22-3.47,10.63Z"/><path class="cls-1" d="M455.62,1111.58c-1.34,17-11.22,27.38-26.16,27.38-18,0-28.16-14-28.16-38.51,0-24.68,10.2-38.62,28.38-38.62,9.33,0,16.41,3.73,20.79,10.92,2.91,4.71,4.14,9.52,4.82,18.07l-15.05,1.11c-.44-6.5-.9-9.09-2.34-11.67-1.91-3.38-4.63-5.06-8.08-5.06-8,0-11.24,7.75-11.24,26.5,0,17,3.26,23.9,11.24,23.9,5.93,0,9.3-4.71,10.53-15Z"/><path class="cls-1" d="M515,1069c6.06,6.64,9,16.74,9,31.43,0,25.39-9.31,38.51-27.16,38.51s-27.16-13.12-27.16-38.26q0-38.91,27.48-38.87C504.36,1061.83,510.78,1064.42,515,1069ZM487,1100.23c0,19,2.47,25.37,9.88,25.37s9.87-6.4,9.87-25.26c0-18.61-2.58-25.14-9.77-25.14C489.55,1075.2,487,1081.48,487,1100.23Z"/><path class="cls-1" d="M559.71,1063l19.11,46.45V1063h12.79v74.86h-14.7l-22.7-54.21v54.21H541.42V1063Z"/><path class="cls-1" d="M656.19,1063v12.9h-28v19.54h21.55v12.9H628.24v29.52H611.85V1063Z"/><path class="cls-1" d="M713.69,1063v12.9H684.63v17.28H707.3v12.92H684.63v18.4h29.06v13.36H668.24V1063Z"/><path class="cls-1" d="M751.9,1063c10.1,0,13.36.79,17.74,3.92,5.18,3.91,8.09,10.56,8.09,18.75,0,9.52-3.05,15-10.56,19.54l13.8,32.65H763l-10-29.52h-8.19v29.52H728.44V1063Zm-7.07,33.23H752c6.29,0,9.66-3.84,9.66-10.89,0-3.59-1.11-6.64-3.26-8.44-1.45-1.22-3.49-1.79-7.08-1.79h-6.5Z"/><path class="cls-1" d="M841.76,1063v12.9H812.67v17.28h22.67v12.92H812.67v18.4h29.09v13.36H796.29V1063Z"/><path class="cls-1" d="M874.09,1063l19.11,46.45V1063H906v74.86h-14.7l-22.69-54.21v54.21H855.81V1063Z"/><path class="cls-1" d="M978,1111.58c-1.33,17-11.21,27.38-26.15,27.38-18,0-28.17-14-28.17-38.51,0-24.68,10.21-38.62,28.39-38.62,9.33,0,16.41,3.73,20.79,10.92,2.91,4.71,4.14,9.52,4.82,18.07l-15,1.11c-.44-6.5-.9-9.09-2.34-11.67-1.91-3.38-4.63-5.06-8.09-5.06-8,0-11.24,7.75-11.24,26.5,0,17,3.27,23.9,11.24,23.9,5.94,0,9.31-4.71,10.54-15Z"/><path class="cls-1" d="M1039.61,1063v12.9h-29.06v17.28h22.67v12.92h-22.67v18.4h29.06v13.36H994.17V1063Z"/><path class="cls-1" d="M396.2,877.16V993.48a1,1,0,0,1-1.05,1H320.32a1,1,0,0,1-1.05-1V877.16a.07.07,0,0,0-.07-.07h-68A1,1,0,0,1,250.1,876V823.68a1,1,0,0,1,1.05-1H464.06a1,1,0,0,1,1.05,1V876a1,1,0,0,1-1.05,1.05H396.27A.07.07,0,0,0,396.2,877.16Z"/><path class="cls-1" d="M640.94,993.48V935a.07.07,0,0,0-.07-.07h-68a.07.07,0,0,0-.07.07v58.5a1,1,0,0,1-1,1H497.19a1,1,0,0,1-1.05-1V823.68a1,1,0,0,1,1.05-1h74.56a1,1,0,0,1,1,1v63.41a.07.07,0,0,0,.07.07h68a.07.07,0,0,0,.07-.07V823.68a1.06,1.06,0,0,1,1.06-1h74.8a1,1,0,0,1,1.05,1v169.8a1,1,0,0,1-1.05,1H642A1.06,1.06,0,0,1,640.94,993.48Z"/><path class="cls-1" d="M1121.9,877.16V993.48a1,1,0,0,1-1.05,1H1046a1,1,0,0,1-1-1V877.16a.07.07,0,0,0-.08-.07H976.85A1,1,0,0,1,975.8,876V823.68a1,1,0,0,1,1.05-1h212.91a1,1,0,0,1,1,1V876a1,1,0,0,1-1,1.05H1122A.07.07,0,0,0,1121.9,877.16Z"/><path class="cls-1" d="M989.14,994.43l-81-171.75a.06.06,0,0,0-.06,0H783.2a1.06,1.06,0,0,0-1.06,1l12.24,41.17,3.4,12.24L743.51,994.43a.07.07,0,0,0,.06.1h66.18a.08.08,0,0,0,.07,0l13.38-29.6a.08.08,0,0,1,.06,0h71.16s.05,0,.07,0l11.57,29a1.05,1.05,0,0,0,1,.66h82A.07.07,0,0,0,989.14,994.43Zm-110-69.08H840.36a.07.07,0,0,1-.07-.1l20.54-47a.07.07,0,0,1,.13,0l18.23,47S879.17,925.35,879.12,925.35Z"/><path class="cls-1" d="M1249.9,838.86a17.52,17.52,0,1,1-17.44-17.07A17.11,17.11,0,0,1,1249.9,838.86Zm-30.66,0a13.24,13.24,0,0,0,10.16,13.24c8.61,2,16.55-5,16.15-13.86-.34-7.25-5.75-13-13.09-13C1224.85,825.23,1219.24,831.37,1219.24,838.86Zm10.36,8.94H1226a.15.15,0,0,1-.14-.15v-16.8a.14.14,0,0,1,.12-.14,36.59,36.59,0,0,1,6.42-.5c3.2,0,4.67.52,5.91,1.27h0a4.66,4.66,0,0,1,1.64,3.72c0,1.88-1.44,3.33-3.52,3.94v.23c1.67.61,2.6,1.85,3.12,4.14a16.67,16.67,0,0,0,1.12,4.07.15.15,0,0,1-.13.21h-3.93a.13.13,0,0,1-.11-.06,16.17,16.17,0,0,1-1.32-4.11c-.32-1.88-1.36-2.69-3.53-2.69h-1.73a.15.15,0,0,0-.15.15v6.56A.15.15,0,0,1,1229.6,847.8Zm.26-9.81a.15.15,0,0,0,.14.15h1.74c2.17,0,3.93-.76,3.93-2.52,0-1.56-1.13-2.6-3.64-2.6a8.54,8.54,0,0,0-2.06.2.13.13,0,0,0-.11.14Z"/><path class="cls-2" d="M845.4,673.1,808,613.43h13.83l-39.68-63-39.68,63h13.83l-35.8,57-35.79-57h13.83l-39.68-63-39.68,63H633L595.51,673.1h13.81l-39,62.42h72.41v26.42h32.16V735.52H766v26.42h32.16V735.52h72.41l-39-62.42Zm-137.1,0h24.31l-12.16,19.45Z"/><polygon class="cls-2" points="540.71 572.8 495.7 617.81 478.39 635.12 495.7 652.43 540.71 697.43 558.02 680.13 513.01 635.12 558.02 590.11 540.71 572.8"/><polygon class="cls-2" points="945.2 617.81 900.2 572.8 882.89 590.11 927.89 635.12 882.89 680.13 900.2 697.43 945.2 652.43 962.51 635.12 945.2 617.81"/></svg>