<svg id="Layer_1" data-name="Layer 1" xmlns="http://www.w3.org/2000/svg" viewBox="0 0 1500 1500"><defs><style>.cls-1{fill:#26529a;}.cls-2{fill:#f74646;}</style></defs><title>THAT Conference - Logo - Conference without Location</title><path class="cls-1" d="M396.1,892.93v116.32a1,1,0,0,1-1.05,1H320.23a1,1,0,0,1-1.05-1V892.93a.08.08,0,0,0-.08-.07H251.05a1,1,0,0,1-1.05-1.05V839.45a1,1,0,0,1,1.05-1.05H464a1,1,0,0,1,1.05,1.05v52.36a1,1,0,0,1-1.05,1.05H396.17A.07.07,0,0,0,396.1,892.93Z"/><path class="cls-1" d="M640.85,1009.25v-58.5a.07.07,0,0,0-.08-.07h-68a.07.07,0,0,0-.07.07v58.5a1,1,0,0,1-1.05,1H497.09a1,1,0,0,1-1-1V839.45a1,1,0,0,1,1-1.05h74.56a1,1,0,0,1,1.05,1.05v63.41a.07.07,0,0,0,.07.07h68a.07.07,0,0,0,.08-.07V839.45a1,1,0,0,1,1-1.05h74.8a1,1,0,0,1,1,1.05v169.8a1,1,0,0,1-1,1H641.9A1,1,0,0,1,640.85,1009.25Z"/><path class="cls-1" d="M1121.8,892.93v116.32a1,1,0,0,1-1,1h-74.82a1,1,0,0,1-1-1V892.93a.07.07,0,0,0-.07-.07H976.75a1,1,0,0,1-1-1.05V839.45a1,1,0,0,1,1-1.05h212.91a1,1,0,0,1,1,1.05v52.36a1,1,0,0,1-1,1.05h-67.78A.08.08,0,0,0,1121.8,892.93Z"/><path class="cls-1" d="M989,1010.2l-81-171.76a.1.1,0,0,0-.07,0H783.1a1,1,0,0,0-1.05,1.05l12.24,41.17,3.39,12.24L743.41,1010.2a.07.07,0,0,0,.06.1h66.18a.08.08,0,0,0,.07,0l13.38-29.6a.08.08,0,0,1,.07,0h71.15a.08.08,0,0,1,.07,0l11.57,29a1.05,1.05,0,0,0,1,.66h82A.07.07,0,0,0,989,1010.2ZM879,941.12H840.26a.07.07,0,0,1-.06-.1l20.53-47a.07.07,0,0,1,.13,0l18.23,47A.07.07,0,0,1,879,941.12Z"/><path class="cls-1" d="M455.52,1127.35c-1.33,17-11.21,27.38-26.15,27.38-18,0-28.17-14-28.17-38.51,0-24.68,10.2-38.62,28.38-38.62,9.34,0,16.41,3.73,20.79,10.92,2.92,4.7,4.14,9.52,4.82,18.07l-15.05,1.11c-.43-6.5-.9-9.09-2.34-11.67-1.9-3.38-4.62-5.06-8.08-5.06-8,0-11.24,7.75-11.24,26.5,0,17,3.27,23.9,11.24,23.9,5.93,0,9.31-4.71,10.53-15Z"/><path class="cls-1" d="M514.93,1084.79c6.07,6.64,9,16.74,9,31.43,0,25.39-9.31,38.51-27.16,38.51s-27.16-13.12-27.16-38.26q0-38.91,27.49-38.87C504.26,1077.6,510.68,1080.19,514.93,1084.79ZM486.87,1116c0,19,2.48,25.37,9.88,25.37s9.88-6.4,9.88-25.26c0-18.61-2.59-25.14-9.77-25.14C489.46,1091,486.87,1097.25,486.87,1116Z"/><path class="cls-1" d="M559.61,1078.75l19.11,46.45v-46.45h12.79v74.86h-14.7l-22.69-54.21v54.21H541.33v-74.86Z"/><path class="cls-1" d="M656.09,1078.75v12.9h-28v19.54h21.55v12.9H628.14v29.52H611.76v-74.86Z"/><path class="cls-1" d="M713.59,1078.75v12.9H684.53v17.28H707.2v12.92H684.53v18.4h29.06v13.36H668.15v-74.86Z"/><path class="cls-1" d="M751.8,1078.75c10.1,0,13.37.79,17.75,3.92,5.17,3.91,8.08,10.55,8.08,18.75,0,9.52-3,15-10.56,19.54l13.8,32.65h-18l-10-29.52h-8.19v29.52H728.34v-74.86ZM744.73,1112h7.18c6.29,0,9.66-3.84,9.66-10.89,0-3.59-1.11-6.64-3.26-8.44-1.44-1.22-3.49-1.79-7.08-1.79h-6.5Z"/><path class="cls-1" d="M841.67,1078.75v12.9h-29.1v17.28h22.67v12.92H812.57v18.4h29.1v13.36H796.19v-74.86Z"/><path class="cls-1" d="M874,1078.75l19.1,46.45v-46.45h12.79v74.86H891.2l-22.7-54.21v54.21H855.71v-74.86Z"/><path class="cls-1" d="M977.88,1127.35c-1.34,17-11.22,27.38-26.16,27.38-18,0-28.17-14-28.17-38.51,0-24.68,10.21-38.62,28.39-38.62,9.33,0,16.41,3.73,20.79,10.92,2.91,4.7,4.14,9.52,4.82,18.07l-15,1.11c-.44-6.5-.9-9.09-2.34-11.67-1.91-3.38-4.63-5.06-8.08-5.06-8,0-11.24,7.75-11.24,26.5,0,17,3.26,23.9,11.24,23.9,5.93,0,9.3-4.71,10.53-15Z"/><path class="cls-1" d="M1039.52,1078.75v12.9h-29.07v17.28h22.67v12.92h-22.67v18.4h29.07v13.36H994.07v-74.86Z"/><path class="cls-1" d="M1250,854.63a17.11,17.11,0,0,1-17.44,17.24,17.16,17.16,0,1,1,0-34.31A17.09,17.09,0,0,1,1250,854.63Zm-30.66,0a13.24,13.24,0,0,0,10.16,13.24c8.61,2,16.55-5,16.15-13.87-.34-7.24-5.75-13-13.09-13C1225,841,1219.34,847.14,1219.34,854.63Zm10.35,8.94h-3.64a.15.15,0,0,1-.14-.15v-16.8a.13.13,0,0,1,.11-.14,36.76,36.76,0,0,1,6.42-.5c3.2,0,4.68.52,5.92,1.27h0A4.69,4.69,0,0,1,1240,851c0,1.88-1.45,3.33-3.53,3.94v.23c1.68.61,2.61,1.85,3.13,4.13a16.19,16.19,0,0,0,1.12,4.08.15.15,0,0,1-.13.21h-3.93a.16.16,0,0,1-.12-.06,16.26,16.26,0,0,1-1.31-4.11c-.32-1.88-1.36-2.69-3.53-2.69H1230a.15.15,0,0,0-.14.15v6.56A.15.15,0,0,1,1229.69,863.57Zm.27-9.81a.14.14,0,0,0,.14.14h1.74c2.16,0,3.93-.75,3.93-2.51,0-1.56-1.13-2.6-3.65-2.6a8.61,8.61,0,0,0-2.06.2.13.13,0,0,0-.1.14Z"/><path class="cls-2" d="M963.12,583,890.53,467.36h26.8l-76.9-122.09L763.52,467.36h26.8L720.94,577.9,651.56,467.36h26.8l-76.9-122.09L524.55,467.36h26.8L478.76,583h26.77L430,704H570.28v51.21h62.35V704H809.26v51.21H871.6V704h140.33L936.36,583Zm-265.74,0H744.5l-23.56,37.71Z"/><polygon class="cls-2" points="372.55 388.62 285.32 475.86 251.77 509.41 285.32 542.96 372.55 630.19 406.1 596.64 318.87 509.41 406.1 422.18 372.55 388.62"/><polygon class="cls-2" points="1156.56 475.86 1069.33 388.62 1035.78 422.18 1123.01 509.41 1035.78 596.64 1069.33 630.19 1156.56 542.96 1190.12 509.41 1156.56 475.86"/></svg>